<svg fill="#F6F0F4" xmlns="http://www.w3.org/2000/svg" viewBox="0 0 432 432">
  <polygon points="250.7, -56.7 181.3, -56.7 216, 216"/>
  <polygon points="109.7, -37.6  49.6,  -2.8 216, 216"/>
  <polygon points=" -2.8,  49.6 -37.6, 109.7 216, 216"/>
  <polygon points="-56.7, 181.3 -56.7, 250.7 216, 216"/>
  <polygon points="-37.6, 322.3  -2.8, 382.4 216, 216"/>
  <polygon points=" 49.6, 434.8 109.7, 469.6 216, 216"/>
  <polygon points="181.3, 488.7 250.7, 488.7 216, 216"/>
  <polygon points="322.3, 469.6 382.4, 434.8 216, 216"/>
  <polygon points="434.8, 382.4 469.6, 322.3 216, 216"/>
  <polygon points="488.7, 250.7 488.7, 181.3 216, 216"/>
  <polygon points="469.6, 109.7 434.8,  49.6 216, 216"/>
  <polygon points="382.4,  -2.8 322.3, -37.6 216, 216"/>
</svg>